<svg aria-hidden="true" style="position: absolute; width: 0; height: 0; overflow: visible;" version="1.1" xmlns="http://www.w3.org/2000/svg" xmlns:xlink="http://www.w3.org/1999/xlink">
<defs>

<symbol id="icon-telegram" viewBox="0 0 48 48">
    <path d="M24 0C10.752 0 0 10.752 0 24C0 37.248 10.752 48 24 48C37.248 48 48 37.248 48 24C48 10.752 37.248 0 24 0ZM35.136 16.32C34.776 20.112 33.216 29.328 32.424 33.576C32.088 35.376 31.416 35.976 30.792 36.048C29.4 36.168 28.344 35.136 27 34.248C24.888 32.856 23.688 31.992 21.648 30.648C19.272 29.088 20.808 28.224 22.176 26.832C22.536 26.472 28.68 20.88 28.8 20.376C28.8167 20.2997 28.8145 20.2204 28.7935 20.1451C28.7726 20.0698 28.7337 20.0008 28.68 19.944C28.536 19.824 28.344 19.872 28.176 19.896C27.96 19.944 24.6 22.176 18.048 26.592C17.088 27.24 16.224 27.576 15.456 27.552C14.592 27.528 12.96 27.072 11.736 26.664C10.224 26.184 9.048 25.92 9.144 25.08C9.192 24.648 9.792 24.216 10.92 23.76C17.928 20.712 22.584 18.696 24.912 17.736C31.584 14.952 32.952 14.472 33.864 14.472C34.056 14.472 34.512 14.52 34.8 14.76C35.04 14.952 35.112 15.216 35.136 15.408C35.112 15.552 35.16 15.984 35.136 16.32Z" fill="black"/>
</symbol>

<symbol id="icon-instagram" viewBox="0 0 44 44">
    <path d="M24.2616 0.00270678C25.867 -0.0034535 27.4723 0.012681 29.0772 0.0511053L29.504 0.0665047C29.9967 0.0841041 30.4829 0.106103 31.0703 0.132502C33.411 0.242499 35.0081 0.612086 36.4094 1.15547C37.8613 1.71425 39.0845 2.47102 40.3076 3.69418C41.426 4.79328 42.2915 6.12278 42.8441 7.59025C43.3874 8.9916 43.757 10.5909 43.867 12.9317C43.8934 13.5168 43.9154 14.0052 43.933 14.498L43.9462 14.9248C43.9853 16.529 44.0022 18.1336 43.9968 19.7382L43.999 21.3794V24.2613C44.0044 25.8667 43.9876 27.472 43.9484 29.0769L43.9352 29.5037C43.9176 29.9965 43.8956 30.4827 43.8692 31.07C43.7592 33.4108 43.3852 35.0079 42.8441 36.4093C42.2933 37.8783 41.4276 39.2089 40.3076 40.3075C39.2076 41.4258 37.8774 42.2913 36.4094 42.8441C35.0081 43.3874 33.411 43.757 31.0703 43.867C30.4829 43.8934 29.9967 43.9154 29.504 43.933L29.0772 43.9462C27.4723 43.9853 25.867 44.0022 24.2616 43.9968L22.6205 43.999H19.7409C18.1355 44.0044 16.5302 43.9876 14.9253 43.9484L14.4985 43.9352C13.9763 43.9163 13.4542 43.8943 12.9322 43.8692C10.5915 43.7592 8.99441 43.3852 7.59088 42.8441C6.12286 42.2926 4.79315 41.4269 3.69488 40.3075C2.57524 39.2082 1.70887 37.8778 1.15621 36.4093C0.612838 35.0079 0.243257 33.4108 0.133262 31.07C0.108762 30.548 0.086763 30.0259 0.0672659 29.5037L0.0562667 29.0769C0.0157087 27.472 -0.00262567 25.8667 0.00126934 24.2613V19.7382C-0.00487047 18.1336 0.0112637 16.529 0.049667 14.9248L0.0650662 14.498C0.0826653 14.0052 0.104664 13.5168 0.131063 12.9317C0.241057 10.5887 0.610638 8.9938 1.15401 7.59025C1.707 6.12206 2.57506 4.79292 3.69708 3.69638C4.79459 2.57607 6.12347 1.70891 7.59088 1.15547C8.99441 0.612086 10.5893 0.242499 12.9322 0.132502L14.4985 0.0665047L14.9253 0.0555054C16.5294 0.0149669 18.134 -0.00336776 19.7387 0.000507012L24.2616 0.00270678ZM22.0001 11.0023C20.5427 10.9817 19.0958 11.251 17.7433 11.7945C16.3909 12.3379 15.1599 13.1448 14.122 14.1681C13.0841 15.1915 12.2599 16.4109 11.6974 17.7556C11.1348 19.1002 10.8452 20.5433 10.8452 22.0009C10.8452 23.4584 11.1348 24.9015 11.6974 26.2461C12.2599 27.5908 13.0841 28.8102 14.122 29.8336C15.1599 30.8569 16.3909 31.6638 17.7433 32.2073C19.0958 32.7507 20.5427 33.02 22.0001 32.9994C24.9174 32.9994 27.7151 31.8405 29.7779 29.7777C31.8407 27.7148 32.9996 24.917 32.9996 21.9998C32.9996 19.0825 31.8407 16.2847 29.7779 14.2218C27.7151 12.159 24.9174 11.0023 22.0001 11.0023ZM22.0001 15.4022C22.8768 15.386 23.7479 15.5447 24.5626 15.869C25.3772 16.1933 26.1191 16.6767 26.7448 17.2909C27.3706 17.9051 27.8676 18.6379 28.207 19.4464C28.5464 20.2549 28.7212 21.1229 28.7214 21.9997C28.7215 22.8766 28.547 23.7446 28.2078 24.5533C27.8687 25.3619 27.3719 26.0948 26.7464 26.7092C26.1208 27.3237 25.3791 27.8073 24.5646 28.1318C23.7501 28.4564 22.879 28.6154 22.0023 28.5995C20.252 28.5995 18.5734 27.9042 17.3357 26.6665C16.098 25.4288 15.4027 23.7501 15.4027 21.9998C15.4027 20.2494 16.098 18.5707 17.3357 17.333C18.5734 16.0953 20.252 15.4 22.0023 15.4L22.0001 15.4022ZM33.5495 7.70245C32.8398 7.73085 32.1687 8.03277 31.6766 8.54495C31.1845 9.05714 30.9097 9.73987 30.9097 10.4502C30.9097 11.1604 31.1845 11.8432 31.6766 12.3553C32.1687 12.8675 32.8398 13.1695 33.5495 13.1979C34.2789 13.1979 34.9783 12.9081 35.494 12.3924C36.0097 11.8767 36.2994 11.1773 36.2994 10.448C36.2994 9.71863 36.0097 9.01918 35.494 8.50347C34.9783 7.98777 34.2789 7.69805 33.5495 7.69805V7.70245Z" fill="black"/>    
</symbol>

<symbol id="icon-facebook" viewBox="0 0 48 48">
   <path d="M48 24.0602C48 10.7789 37.248 0 24 0C10.752 0 0 10.7789 0 24.0602C0 35.7053 8.256 45.4015 19.2 47.6391V31.2782H14.4V24.0602H19.2V18.0451C19.2 13.4015 22.968 9.62406 27.6 9.62406H33.6V16.8421H28.8C27.48 16.8421 26.4 17.9248 26.4 19.2481V24.0602H33.6V31.2782H26.4V48C38.52 46.797 48 36.5474 48 24.0602Z" fill="black"/>
</symbol>

<symbol id="icon-arrow" viewBox="0 0 48 48">
    <path d="M1 41L45 1M45 1H1M45 1V37.5812" stroke="#090909" stroke-width="2"/>
</symbol>

<symbol id="icon-phone" viewBox="0 0 32 32">
    <path d="M22 20c-2 2-2 4-4 4s-4-2-6-4-4-4-4-6 2-2 4-4-4-8-6-8-6 6-6 6c0 4 4.109 12.109 8 16s12 8 16 8c0 0 6-4 6-6s-6-8-8-6z"></path>
</symbol>

<symbol id="icon-clock" viewBox="0 0 32 32">
    <path d="M16 0c-8.837 0-16 7.163-16 16s7.163 16 16 16 16-7.163 16-16-7.163-16-16-16zM20.586 23.414l-6.586-6.586v-8.828h4v7.172l5.414 5.414-2.829 2.829z"></path>
</symbol>

<symbol id="icon-location" viewBox="0 0 32 32">
    <path d="M16 0c-5.523 0-10 4.477-10 10 0 10 10 22 10 22s10-12 10-22c0-5.523-4.477-10-10-10zM16 16.125c-3.383 0-6.125-2.742-6.125-6.125s2.742-6.125 6.125-6.125 6.125 2.742 6.125 6.125-2.742 6.125-6.125 6.125zM12.125 10c0-2.14 1.735-3.875 3.875-3.875s3.875 1.735 3.875 3.875c0 2.14-1.735 3.875-3.875 3.875s-3.875-1.735-3.875-3.875z"></path>
</symbol>

<symbol id="icon-mail" viewBox="0 0 32 32">
    <path d="M7.077 10.923l0.808-0.808 8.615 7.385 8.615-7.385 0.808 0.808-9.423 8.077-9.423-8.077zM6.004 8c-1.107 0-2.004 0.895-2.004 1.994v12.012c0 1.101 0.89 1.994 2.004 1.994h20.993c1.107 0 2.004-0.895 2.004-1.994v-12.012c0-1.101-0.89-1.994-2.004-1.994h-20.993z"></path>
</symbol>

<symbol id="icon-clock-why" viewBox="0 0 24 24">
    <path d="M23 12c0-3.037-1.232-5.789-3.222-7.778s-4.741-3.222-7.778-3.222-5.789 1.232-7.778 3.222-3.222 4.741-3.222 7.778 1.232 5.789 3.222 7.778 4.741 3.222 7.778 3.222 5.789-1.232 7.778-3.222 3.222-4.741 3.222-7.778zM21 12c0 2.486-1.006 4.734-2.636 6.364s-3.878 2.636-6.364 2.636-4.734-1.006-6.364-2.636-2.636-3.878-2.636-6.364 1.006-4.734 2.636-6.364 3.878-2.636 6.364-2.636 4.734 1.006 6.364 2.636 2.636 3.878 2.636 6.364zM11 6v6c0 0.389 0.222 0.727 0.553 0.894l4 2c0.494 0.247 1.095 0.047 1.342-0.447s0.047-1.095-0.447-1.342l-3.448-1.723v-5.382c0-0.552-0.448-1-1-1s-1 0.448-1 1z"></path>
</symbol>

<symbol id="icon-burger-menu" viewBox="0 0 20 20">
    <path d="M0 3h20v2h-20v-2zM0 9h20v2h-20v-2zM0 15h20v2h-20v-2z"></path>
</symbol>

<symbol id="icon-speed" viewBox="0 0 32 32">
    <path d="M15.4999 2.58337C22.6338 2.58337 28.4166 8.36617 28.4166 15.5C28.4166 22.6339 22.6338 28.4167 15.4999 28.4167C8.36607 28.4167 2.58328 22.6339 2.58328 15.5C2.58328 8.36617 8.36607 2.58337 15.4999 2.58337ZM15.4999 5.16671C12.7594 5.16671 10.1311 6.25539 8.19318 8.19327C6.2553 10.1311 5.16662 12.7595 5.16662 15.5C5.16662 18.2406 6.2553 20.8689 8.19318 22.8068C10.1311 24.7447 12.7594 25.8334 15.4999 25.8334C18.2405 25.8334 20.8688 24.7447 22.8067 22.8068C24.7446 20.8689 25.8333 18.2406 25.8333 15.5C25.8333 12.7595 24.7446 10.1311 22.8067 8.19327C20.8688 6.25539 18.2405 5.16671 15.4999 5.16671ZM15.4999 7.75004C15.8163 7.75008 16.1217 7.86623 16.3581 8.07646C16.5945 8.2867 16.7456 8.57638 16.7826 8.89058L16.7916 9.04171V14.9653L20.2882 18.4618C20.5198 18.6943 20.6543 19.0062 20.6643 19.3342C20.6743 19.6622 20.5591 19.9818 20.3421 20.2279C20.125 20.474 19.8224 20.6284 19.4958 20.6595C19.1691 20.6906 18.8428 20.5962 18.5832 20.3955L18.4617 20.2882L14.5867 16.4132C14.386 16.2123 14.2571 15.9508 14.2199 15.6692L14.2083 15.5V9.04171C14.2083 8.69914 14.3444 8.3706 14.5866 8.12836C14.8288 7.88613 15.1574 7.75004 15.4999 7.75004Z" fill="black"/>
</symbol>

<symbol id="icon-service" viewBox="0 0 25 25">
    <path d="M23.4219 9.68973C23.0011 9.25 22.5658 8.79688 22.4018 8.39844C22.25 8.03348 22.2411 7.42857 22.2321 6.84263C22.2154 5.75335 22.1975 4.51897 21.3393 3.66071C20.481 2.80246 19.2467 2.7846 18.1574 2.76786C17.5714 2.75893 16.9665 2.75 16.6016 2.59821C16.2042 2.43415 15.75 1.99888 15.3103 1.57812C14.5402 0.83817 13.6652 0 12.5 0C11.3348 0 10.4609 0.83817 9.68973 1.57812C9.25 1.99888 8.79688 2.43415 8.39844 2.59821C8.03571 2.75 7.42857 2.75893 6.84263 2.76786C5.75335 2.7846 4.51897 2.80246 3.66071 3.66071C2.80246 4.51897 2.79018 5.75335 2.76786 6.84263C2.75893 7.42857 2.75 8.03348 2.59821 8.39844C2.43415 8.79576 1.99888 9.25 1.57812 9.68973C0.83817 10.4598 0 11.3348 0 12.5C0 13.6652 0.83817 14.5391 1.57812 15.3103C1.99888 15.75 2.43415 16.2031 2.59821 16.6016C2.75 16.9665 2.75893 17.5714 2.76786 18.1574C2.7846 19.2467 2.80246 20.481 3.66071 21.3393C4.51897 22.1975 5.75335 22.2154 6.84263 22.2321C7.42857 22.2411 8.03348 22.25 8.39844 22.4018C8.79576 22.5658 9.25 23.0011 9.68973 23.4219C10.4598 24.1618 11.3348 25 12.5 25C13.6652 25 14.5391 24.1618 15.3103 23.4219C15.75 23.0011 16.2031 22.5658 16.6016 22.4018C16.9665 22.25 17.5714 22.2411 18.1574 22.2321C19.2467 22.2154 20.481 22.1975 21.3393 21.3393C22.1975 20.481 22.2154 19.2467 22.2321 18.1574C22.2411 17.5714 22.25 16.9665 22.4018 16.6016C22.5658 16.2042 23.0011 15.75 23.4219 15.3103C24.1618 14.5402 25 13.6652 25 12.5C25 11.3348 24.1618 10.4609 23.4219 9.68973ZM22.1328 14.0748C21.5982 14.6328 21.0446 15.2098 20.7511 15.9185C20.4699 16.5993 20.4576 17.3772 20.4464 18.1306C20.4353 18.9118 20.423 19.7299 20.0759 20.0759C19.7288 20.4219 18.9163 20.4353 18.1306 20.4464C17.3772 20.4576 16.5993 20.4699 15.9185 20.7511C15.2098 21.0446 14.6328 21.5982 14.0748 22.1328C13.5167 22.6674 12.9464 23.2143 12.5 23.2143C12.0536 23.2143 11.4788 22.6652 10.9252 22.1328C10.3717 21.6004 9.79018 21.0446 9.08147 20.7511C8.40067 20.4699 7.62277 20.4576 6.86942 20.4464C6.08817 20.4353 5.27009 20.423 4.92411 20.0759C4.57812 19.7288 4.56473 18.9163 4.55357 18.1306C4.54241 17.3772 4.53013 16.5993 4.24888 15.9185C3.95536 15.2098 3.40179 14.6328 2.86719 14.0748C2.33259 13.5167 1.78571 12.9464 1.78571 12.5C1.78571 12.0536 2.33482 11.4788 2.86719 10.9252C3.39955 10.3717 3.95536 9.79018 4.24888 9.08147C4.53013 8.40067 4.54241 7.62277 4.55357 6.86942C4.56473 6.08817 4.57701 5.27009 4.92411 4.92411C5.27121 4.57812 6.08371 4.56473 6.86942 4.55357C7.62277 4.54241 8.40067 4.53013 9.08147 4.24888C9.79018 3.95536 10.3672 3.40179 10.9252 2.86719C11.4833 2.33259 12.0536 1.78571 12.5 1.78571C12.9464 1.78571 13.5212 2.33482 14.0748 2.86719C14.6283 3.39955 15.2098 3.95536 15.9185 4.24888C16.5993 4.53013 17.3772 4.54241 18.1306 4.55357C18.9118 4.56473 19.7299 4.57701 20.0759 4.92411C20.4219 5.27121 20.4353 6.08371 20.4464 6.86942C20.4576 7.62277 20.4699 8.40067 20.7511 9.08147C21.0446 9.79018 21.5982 10.3672 22.1328 10.9252C22.6674 11.4833 23.2143 12.0536 23.2143 12.5C23.2143 12.9464 22.6652 13.5212 22.1328 14.0748ZM17.596 9.18973C17.679 9.27265 17.7449 9.37113 17.7898 9.47952C17.8347 9.58791 17.8578 9.70409 17.8578 9.82143C17.8578 9.93876 17.8347 10.0549 17.7898 10.1633C17.7449 10.2717 17.679 10.3702 17.596 10.4531L11.346 16.7031C11.2631 16.7861 11.1646 16.852 11.0562 16.8969C10.9478 16.9419 10.8316 16.965 10.7143 16.965C10.597 16.965 10.4808 16.9419 10.3724 16.8969C10.264 16.852 10.1655 16.7861 10.0826 16.7031L7.40402 14.0246C7.32106 13.9416 7.25526 13.8431 7.21036 13.7347C7.16547 13.6263 7.14236 13.5102 7.14236 13.3929C7.14236 13.2755 7.16547 13.1594 7.21036 13.051C7.25526 12.9426 7.32106 12.8441 7.40402 12.7612C7.57155 12.5936 7.79878 12.4995 8.03571 12.4995C8.15303 12.4995 8.2692 12.5226 8.37759 12.5675C8.48597 12.6124 8.58446 12.6782 8.66741 12.7612L10.7143 14.8092L16.3326 9.18973C16.4155 9.10672 16.514 9.04086 16.6224 8.99593C16.7308 8.951 16.847 8.92787 16.9643 8.92787C17.0816 8.92787 17.1978 8.951 17.3062 8.99593C17.4146 9.04086 17.5131 9.10672 17.596 9.18973Z" fill="black"/>
</symbol>

<symbol id="icon-price" viewBox="0 0 30 30">
    <path d="M12 0C5.37321 0 0 5.37321 0 12C0 18.6268 5.37321 24 12 24C18.6268 24 24 18.6268 24 12C24 5.37321 18.6268 0 12 0ZM12 21.9643C6.49821 21.9643 2.03571 17.5018 2.03571 12C2.03571 6.49821 6.49821 2.03571 12 2.03571C17.5018 2.03571 21.9643 6.49821 21.9643 12C21.9643 17.5018 17.5018 21.9643 12 21.9643ZM13.2777 11.3786L12.5973 11.2205V7.62321C13.6152 7.7625 14.2446 8.4 14.3518 9.18214C14.3652 9.28929 14.4563 9.36696 14.5634 9.36696H15.7661C15.892 9.36696 15.9911 9.25714 15.9804 9.13125C15.817 7.4625 14.4429 6.39107 12.608 6.20625V5.33036C12.608 5.2125 12.5116 5.11607 12.3938 5.11607H11.6411C11.5232 5.11607 11.4268 5.2125 11.4268 5.33036V6.21429C9.53036 6.39911 8.04643 7.44643 8.04643 9.40179C8.04643 11.2125 9.38036 12.0857 10.7812 12.4205L11.4429 12.5893V16.4116C10.2589 16.2536 9.59464 15.6214 9.45804 14.7696C9.44196 14.6679 9.35089 14.5929 9.24643 14.5929H8.00893C7.88304 14.5929 7.78393 14.7 7.79464 14.8259C7.91518 16.2991 9.03214 17.6545 11.4161 17.8286V18.6696C11.4161 18.7875 11.5125 18.8839 11.6304 18.8839H12.3911C12.5089 18.8839 12.6054 18.7875 12.6054 18.667L12.6 17.8179C14.6973 17.633 16.1973 16.5107 16.1973 14.4964C16.1946 12.6375 15.0134 11.8071 13.2777 11.3786ZM11.4402 10.9446C11.2902 10.9018 11.1643 10.8616 11.0384 10.8107C10.133 10.4839 9.7125 9.95625 9.7125 9.27589C9.7125 8.30357 10.4491 7.74911 11.4402 7.62321V10.9446ZM12.5973 16.4196V12.8384C12.6804 12.8625 12.7554 12.8813 12.833 12.8973C14.1 13.283 14.5259 13.8187 14.5259 14.6411C14.5259 15.6884 13.7384 16.3179 12.5973 16.4196Z" fill="black"/>
</symbol>

<symbol id="icon-car-service" viewBox="0 0 32 32">
    <path d="M30.391 12.68l-3.064-0.614c-0.154-0.443-0.336-0.873-0.537-1.289l1.736-2.604c0.529-0.793 0.424-1.85-0.25-2.523l-1.924-1.924c-0.387-0.387-0.898-0.586-1.416-0.586-0.383 0-0.77 0.11-1.107 0.336l-2.604 1.735c-0.418-0.202-0.848-0.382-1.291-0.536l-0.614-3.065c-0.186-0.936-1.008-1.608-1.961-1.608h-2.72c-0.953 0-1.774 0.673-1.961 1.608l-0.614 3.065c-0.443 0.154-0.873 0.335-1.289 0.536l-2.603-1.735c-0.339-0.226-0.725-0.336-1.109-0.336-0.517 0-1.028 0.199-1.415 0.586l-1.923 1.924c-0.674 0.674-0.779 1.73-0.25 2.523l1.735 2.604c-0.202 0.417-0.382 0.847-0.536 1.29l-3.066 0.613c-0.935 0.187-1.608 1.008-1.608 1.961v2.72c0 0.953 0.673 1.775 1.608 1.961l3.065 0.615c0.154 0.443 0.335 0.873 0.536 1.289l-1.734 2.604c-0.529 0.793-0.424 1.85 0.25 2.523l1.924 1.924c0.387 0.387 0.898 0.586 1.415 0.586 0.384 0 0.771-0.111 1.108-0.336l2.604-1.736c0.417 0.203 0.847 0.383 1.29 0.537l0.613 3.064c0.187 0.936 1.008 1.609 1.961 1.609h2.72c0.953 0 1.775-0.674 1.961-1.609l0.615-3.064c0.443-0.154 0.873-0.336 1.289-0.537l2.604 1.736c0.338 0.225 0.725 0.336 1.107 0.336 0.518 0 1.029-0.199 1.416-0.586l1.924-1.924c0.674-0.674 0.779-1.73 0.25-2.523l-1.736-2.604c0.203-0.418 0.383-0.848 0.537-1.291l3.064-0.613c0.935-0.185 1.609-1.008 1.609-1.961v-2.72c0-0.953-0.674-1.774-1.609-1.961zM26.934 17.975c-0.695 0.139-1.264 0.635-1.496 1.305-0.129 0.369-0.279 0.727-0.447 1.074-0.311 0.639-0.258 1.393 0.135 1.982l1.736 2.604-1.924 1.924-2.604-1.736c-0.334-0.223-0.721-0.336-1.109-0.336-0.297 0-0.596 0.066-0.871 0.199-0.348 0.168-0.705 0.32-1.076 0.449-0.668 0.232-1.164 0.801-1.303 1.496l-0.615 3.066h-2.72l-0.613-3.066c-0.139-0.695-0.635-1.264-1.304-1.496-0.369-0.129-0.728-0.279-1.075-0.447-0.276-0.135-0.574-0.201-0.872-0.201-0.389 0-0.775 0.113-1.109 0.336l-2.604 1.736-1.924-1.924 1.735-2.604c0.393-0.59 0.444-1.344 0.137-1.98-0.168-0.348-0.319-0.705-0.448-1.076-0.232-0.668-0.802-1.164-1.496-1.303l-3.065-0.615-0.002-2.721 3.066-0.613c0.694-0.139 1.264-0.635 1.496-1.304 0.129-0.369 0.278-0.728 0.447-1.075 0.31-0.638 0.258-1.392-0.136-1.981l-1.734-2.604 1.923-1.924 2.604 1.735c0.334 0.223 0.721 0.336 1.109 0.336 0.297 0 0.595-0.066 0.871-0.199 0.347-0.168 0.705-0.319 1.075-0.448 0.669-0.232 1.165-0.802 1.304-1.496l0.614-3.065 2.72-0.001 0.613 3.066c0.139 0.694 0.635 1.264 1.305 1.496 0.369 0.129 0.727 0.278 1.074 0.447 0.277 0.134 0.574 0.2 0.873 0.2 0.389 0 0.775-0.113 1.109-0.336l2.604-1.735 1.924 1.924-1.736 2.604c-0.393 0.59-0.443 1.343-0.137 1.98 0.168 0.347 0.32 0.705 0.449 1.075 0.232 0.669 0.801 1.165 1.496 1.304l3.064 0.614 0.003 2.72-3.066 0.614zM16 9.001c-3.865 0-7 3.135-7 7 0 3.866 3.135 7 7 7s7-3.135 7-7c0-3.865-3.135-7-7-7zM16 22.127c-3.382 0-6.125-2.744-6.125-6.125s2.743-6.125 6.125-6.125c3.381 0 6.125 2.743 6.125 6.125 0 3.381-2.744 6.125-6.125 6.125zM16 12.001c-2.21 0-4 1.79-4 4s1.79 4 4 4c2.209 0 4-1.791 4-4s-1.791-4-4-4zM16 19.002c-1.656 0-3-1.344-3-3s1.344-3 3-3 3 1.344 3 3c0 1.656-1.344 3-3 3z"></path>
</symbol>

<symbol id="icon-report" viewBox="0 0 30 30">
    <path d="M23.8846 3.13043H20.2863L18.5171 0.464348C18.4223 0.321589 18.2939 0.204526 18.1433 0.123529C17.9928 0.0425324 17.8246 0.00010305 17.6538 0H9.34615C9.17536 0.00010305 9.00723 0.0425324 8.85666 0.123529C8.70609 0.204526 8.57772 0.321589 8.48293 0.464348L6.71236 3.13043H3.11538C2.28913 3.13043 1.49672 3.46025 0.912475 4.04732C0.328227 4.63439 0 5.43063 0 6.26087V20.8696C0 21.6998 0.328227 22.496 0.912475 23.0831C1.49672 23.6702 2.28913 24 3.11538 24H23.8846C24.7109 24 25.5033 23.6702 26.0875 23.0831C26.6718 22.496 27 21.6998 27 20.8696V6.26087C27 5.43063 26.6718 4.63439 26.0875 4.04732C25.5033 3.46025 24.7109 3.13043 23.8846 3.13043ZM24.9231 20.8696C24.9231 21.1463 24.8137 21.4117 24.6189 21.6074C24.4242 21.8031 24.16 21.913 23.8846 21.913H3.11538C2.83997 21.913 2.57583 21.8031 2.38108 21.6074C2.18633 21.4117 2.07692 21.1463 2.07692 20.8696V6.26087C2.07692 5.98412 2.18633 5.71871 2.38108 5.52302C2.57583 5.32733 2.83997 5.21739 3.11538 5.21739H7.26923C7.44024 5.2175 7.60863 5.17518 7.75945 5.09417C7.91027 5.01316 8.03884 4.89599 8.13375 4.75304L9.90173 2.08696H17.097L18.8662 4.75304C18.9612 4.89599 19.0897 5.01316 19.2406 5.09417C19.3914 5.17518 19.5598 5.2175 19.7308 5.21739H23.8846C24.16 5.21739 24.4242 5.32733 24.6189 5.52302C24.8137 5.71871 24.9231 5.98412 24.9231 6.26087V20.8696ZM13.5 7.30435C12.3704 7.30435 11.2661 7.64094 10.3268 8.27157C9.38758 8.90219 8.65552 9.79852 8.22323 10.8472C7.79093 11.8959 7.67783 13.0498 7.89821 14.1631C8.11859 15.2764 8.66256 16.299 9.46133 17.1017C10.2601 17.9043 11.2778 18.4509 12.3857 18.6723C13.4937 18.8938 14.6421 18.7801 15.6857 18.3457C16.7294 17.9114 17.6214 17.1758 18.249 16.232C18.8766 15.2882 19.2115 14.1786 19.2115 13.0435C19.2098 11.5219 18.6075 10.0631 17.5368 8.98721C16.466 7.91128 15.0143 7.30607 13.5 7.30435ZM13.5 16.6957C12.7811 16.6957 12.0784 16.4815 11.4807 16.0801C10.883 15.6788 10.4171 15.1085 10.1421 14.4411C9.86696 13.7738 9.79498 13.0394 9.93522 12.331C10.0755 11.6225 10.4216 10.9718 10.9299 10.461C11.4382 9.95024 12.0859 9.6024 12.7909 9.46148C13.496 9.32056 14.2268 9.39288 14.8909 9.66931C15.555 9.94573 16.1227 10.4138 16.5221 11.0144C16.9214 11.615 17.1346 12.3211 17.1346 13.0435C17.1346 14.0121 16.7517 14.941 16.0701 15.626C15.3884 16.3109 14.464 16.6957 13.5 16.6957Z" fill="black"/>
</symbol>

<symbol id="icon-accompaniment" viewBox="0 0 30 30">
    <path d="M16.0764 0.000437807C15.561 0.0042346 15.0494 0.0298632 14.5089 0.177938C13.9202 0.341301 13.3616 0.601973 12.8551 0.949637C12.1439 0.522497 11.4549 0.171294 10.7946 0.0887133C9.97471 -0.0147494 9.21329 0.0412536 8.32836 0.0602376C7.27907 0.0820691 6.59471 0.629757 5.48414 1.06829C4.3745 1.50492 2.94543 1.92826 0.928571 1.92826H0V11.0643L0.522786 11.331L2.23414 12.192L8.32836 19.1325L8.35714 19.1619C9.05357 19.8662 9.99329 20.0409 10.8234 19.9925C11.6545 19.945 12.4345 19.6963 13.0576 19.3109C14.4291 18.4652 18.1647 15.8103 18.1647 15.8103L18.252 15.7505L18.3105 15.6917C18.7525 15.2427 18.9744 14.695 19.123 14.1198L22.6915 12.2802L25.3611 11.3614L26 11.1526V1.92826H25.0714C23.5105 1.93917 21.9627 1.63667 20.5159 1.03791C19.4053 0.594637 18.7311 0.0526439 17.6707 0.0298631C17.1043 0.0184727 16.5908 -0.00335899 16.0764 0.000437807ZM16.1042 1.89884C16.5221 1.89504 17.0049 1.91782 17.6141 1.92826C17.7116 1.93206 18.6039 2.32123 19.8482 2.81861C20.9003 3.241 22.3619 3.61594 24.1429 3.73744V9.78858L21.9951 10.5309H21.9375L21.879 10.5593L19.0654 12.0135C18.9161 11.573 18.6789 11.169 18.369 10.827L18.3105 10.7378L14.3641 5.78486L13.7837 5.04258L13.0576 5.63583L10.5625 7.71268C9.72493 8.30593 9.04614 8.13508 8.35714 7.80191C8.1575 7.70509 8.16864 7.67566 8.00893 7.56461L12.246 3.97474L12.3036 3.91588C13.5618 2.64016 14.3353 2.19878 15.002 2.01749C15.3363 1.92446 15.6873 1.90263 16.1042 1.89884ZM9.63486 1.92826C9.94468 1.91632 10.2549 1.92616 10.5634 1.95769C10.8067 1.98711 11.0825 2.19878 11.3184 2.28421C11.2236 2.37344 11.1549 2.42469 11.0565 2.52151L10.9989 2.58131L5.92057 6.88118L5.13686 7.53423L5.83329 8.27556C5.83329 8.27556 6.50464 9.01783 7.54557 9.52186C8.5865 10.0259 10.1939 10.3116 11.6369 9.28456L11.6954 9.22476L13.494 7.71268L16.9186 12.0135L16.9474 12.0733L16.9761 12.1018C17.589 12.7216 17.5751 13.6964 16.9761 14.3277C16.9687 14.3343 16.9836 14.3495 16.9761 14.3561C16.9687 14.3609 16.8461 14.4349 16.8313 14.4463L15.6121 12.7548L14.1031 13.8825L15.2936 15.5132C14.8107 15.8473 14.5934 16.022 14.0744 16.3741L12.8273 14.6532L11.3174 15.7809L12.5079 17.4116C12.402 17.478 12.1847 17.6271 12.1011 17.6793C11.8077 17.8606 11.2413 18.0647 10.7371 18.0941C10.2626 18.1207 9.8995 18.0086 9.72214 17.8568L9.69336 17.8274L3.48307 10.7976L3.367 10.6486L1.85714 9.87781V3.73744C3.63071 3.61879 5.10343 3.25904 6.15179 2.84804C7.39236 2.36205 8.27821 1.96148 8.38593 1.95769L9.63393 1.92826H9.63486Z" fill="black"/>
</symbol>

<symbol id="icon-file-text" viewBox="0 0 32 32">
    <path d="M28.681 7.159c-0.694-0.947-1.662-2.053-2.724-3.116s-2.169-2.030-3.116-2.724c-1.612-1.182-2.393-1.319-2.841-1.319h-15.5c-1.378 0-2.5 1.121-2.5 2.5v27c0 1.378 1.122 2.5 2.5 2.5h23c1.378 0 2.5-1.122 2.5-2.5v-19.5c0-0.448-0.137-1.23-1.319-2.841zM24.543 5.457c0.959 0.959 1.712 1.825 2.268 2.543h-4.811v-4.811c0.718 0.556 1.584 1.309 2.543 2.268zM28 29.5c0 0.271-0.229 0.5-0.5 0.5h-23c-0.271 0-0.5-0.229-0.5-0.5v-27c0-0.271 0.229-0.5 0.5-0.5 0 0 15.499-0 15.5 0v7c0 0.552 0.448 1 1 1h7v19.5z"></path>
    <path d="M23 26h-14c-0.552 0-1-0.448-1-1s0.448-1 1-1h14c0.552 0 1 0.448 1 1s-0.448 1-1 1z"></path>
    <path d="M23 22h-14c-0.552 0-1-0.448-1-1s0.448-1 1-1h14c0.552 0 1 0.448 1 1s-0.448 1-1 1z"></path>
    <path d="M23 18h-14c-0.552 0-1-0.448-1-1s0.448-1 1-1h14c0.552 0 1 0.448 1 1s-0.448 1-1 1z"></path>
</symbol>

</defs>
</svg>
