<svg width="1749" height="5709" viewBox="0 0 1749 5709" fill="none" xmlns="http://www.w3.org/2000/svg">
<path d="M1212.65 1C1024.84 70.5121 984.768 211.139 1194.61 250.5C1404.45 289.861 1373.45 362.102 1362.17 467.27C1353.32 549.743 1212.51 595.915 1409.61 692.5C1606.71 789.085 1581.64 795.372 1587.61 823C1076.91 950.167 113.5 1255.4 345.5 1459C577.5 1662.6 513.001 2025.5 1363.5 2197.5C2214 2369.5 2148.13 3229.91 1569.5 3499C1262 3642 261.618 3951.5 97.4999 4238.5C-167.167 4701.33 125.7 5738.6 832.499 5707C1539.3 5675.4 1735.33 5648.5 1745 5639H1830.5" stroke="url(#paint0_linear_959_1371)" stroke-width="2"/>
<defs>
<linearGradient id="paint0_linear_959_1371" x1="1002.49" y1="1" x2="1002.49" y2="5707.71" gradientUnits="userSpaceOnUse">
<stop stop-color="#FFDE2C"/>
<stop offset="1" stop-color="#EED135"/>
</linearGradient>
</defs>
</svg>
